<svg width="375" height="236" viewBox="0 0 375 236" fill="none" xmlns="http://www.w3.org/2000/svg">
<mask id="mask0_1402_11312" style="mask-type:alpha" maskUnits="userSpaceOnUse" x="0" y="0" width="375" height="236">
<path d="M0 0H375V229.209C375 232.959 371.05 236 366.176 236H8.82353C3.95043 236 0 232.959 0 229.209V0Z" fill="#0A9494"/>
</mask>
<g mask="url(#mask0_1402_11312)">
<path fill-rule="evenodd" clip-rule="evenodd" d="M348.247 156.155C401.065 156.155 443.838 114.424 443.838 62.9996C443.838 11.575 401.065 -30.1562 348.247 -30.1562C295.43 -30.1562 252.656 11.575 252.656 62.9996C252.656 114.424 295.43 156.155 348.247 156.155ZM348.247 157.155C401.593 157.155 444.838 115 444.838 62.9996C444.838 10.9988 401.593 -31.1562 348.247 -31.1562C294.901 -31.1562 251.656 10.9988 251.656 62.9996C251.656 115 294.901 157.155 348.247 157.155Z" fill="#0CA3A3"/>
<path fill-rule="evenodd" clip-rule="evenodd" d="M348.247 156.155C401.065 156.155 443.838 114.424 443.838 62.9996C443.838 11.575 401.065 -30.1562 348.247 -30.1562C295.43 -30.1562 252.656 11.575 252.656 62.9996C252.656 114.424 295.43 156.155 348.247 156.155ZM348.247 157.155C401.593 157.155 444.838 115 444.838 62.9996C444.838 10.9988 401.593 -31.1562 348.247 -31.1562C294.901 -31.1562 251.656 10.9988 251.656 62.9996C251.656 115 294.901 157.155 348.247 157.155Z" fill="#0CA3A3"/>
<path fill-rule="evenodd" clip-rule="evenodd" d="M348.247 156.155C401.065 156.155 443.838 114.424 443.838 62.9996C443.838 11.575 401.065 -30.1562 348.247 -30.1562C295.43 -30.1562 252.656 11.575 252.656 62.9996C252.656 114.424 295.43 156.155 348.247 156.155ZM348.247 157.155C401.593 157.155 444.838 115 444.838 62.9996C444.838 10.9988 401.593 -31.1562 348.247 -31.1562C294.901 -31.1562 251.656 10.9988 251.656 62.9996C251.656 115 294.901 157.155 348.247 157.155Z" fill="#0CA3A3"/>
<path fill-rule="evenodd" clip-rule="evenodd" d="M348.248 126.124C383.11 126.124 411.372 97.8624 411.372 63.0003C411.372 28.1383 383.11 -0.123047 348.248 -0.123047C313.386 -0.123047 285.125 28.1383 285.125 63.0003C285.125 97.8624 313.386 126.124 348.248 126.124ZM348.248 127.124C383.663 127.124 412.372 98.4147 412.372 63.0003C412.372 27.586 383.663 -1.12305 348.248 -1.12305C312.834 -1.12305 284.125 27.586 284.125 63.0003C284.125 98.4147 312.834 127.124 348.248 127.124Z" fill="#0CA3A3"/>
<path fill-rule="evenodd" clip-rule="evenodd" d="M348.248 126.124C383.11 126.124 411.372 97.8624 411.372 63.0003C411.372 28.1383 383.11 -0.123047 348.248 -0.123047C313.386 -0.123047 285.125 28.1383 285.125 63.0003C285.125 97.8624 313.386 126.124 348.248 126.124ZM348.248 127.124C383.663 127.124 412.372 98.4147 412.372 63.0003C412.372 27.586 383.663 -1.12305 348.248 -1.12305C312.834 -1.12305 284.125 27.586 284.125 63.0003C284.125 98.4147 312.834 127.124 348.248 127.124Z" fill="#0CA3A3"/>
<path fill-rule="evenodd" clip-rule="evenodd" d="M348.248 126.124C383.11 126.124 411.372 97.8624 411.372 63.0003C411.372 28.1383 383.11 -0.123047 348.248 -0.123047C313.386 -0.123047 285.125 28.1383 285.125 63.0003C285.125 97.8624 313.386 126.124 348.248 126.124ZM348.248 127.124C383.663 127.124 412.372 98.4147 412.372 63.0003C412.372 27.586 383.663 -1.12305 348.248 -1.12305C312.834 -1.12305 284.125 27.586 284.125 63.0003C284.125 98.4147 312.834 127.124 348.248 127.124Z" fill="#0CA3A3"/>
<path fill-rule="evenodd" clip-rule="evenodd" d="M345 187C413.483 187 469 131.483 469 63C469 -5.48331 413.483 -61 345 -61C276.517 -61 221 -5.48331 221 63C221 131.483 276.517 187 345 187ZM345 188C414.036 188 470 132.036 470 63C470 -6.0356 414.036 -62 345 -62C275.964 -62 220 -6.0356 220 63C220 132.036 275.964 188 345 188Z" fill="#0CA3A3"/>
<path fill-rule="evenodd" clip-rule="evenodd" d="M345 187C413.483 187 469 131.483 469 63C469 -5.48331 413.483 -61 345 -61C276.517 -61 221 -5.48331 221 63C221 131.483 276.517 187 345 187ZM345 188C414.036 188 470 132.036 470 63C470 -6.0356 414.036 -62 345 -62C275.964 -62 220 -6.0356 220 63C220 132.036 275.964 188 345 188Z" fill="#0CA3A3"/>
<path fill-rule="evenodd" clip-rule="evenodd" d="M345 187C413.483 187 469 131.483 469 63C469 -5.48331 413.483 -61 345 -61C276.517 -61 221 -5.48331 221 63C221 131.483 276.517 187 345 187ZM345 188C414.036 188 470 132.036 470 63C470 -6.0356 414.036 -62 345 -62C275.964 -62 220 -6.0356 220 63C220 132.036 275.964 188 345 188Z" fill="#0CA3A3"/>
</g>
</svg>
