<svg width="20" height="20" viewBox="0 0 20 20" fill="none" xmlns="http://www.w3.org/2000/svg">
<g id="radix-icons:cross-1">
<path id="Vector" fill-rule="evenodd" clip-rule="evenodd" d="M17.1369 3.80552C17.1989 3.74354 17.2481 3.66995 17.2816 3.58897C17.3151 3.50798 17.3324 3.42118 17.3324 3.33352C17.3324 3.24587 17.3151 3.15907 17.2816 3.07808C17.2481 2.99709 17.1989 2.92351 17.1369 2.86152C17.0749 2.79954 17.0013 2.75037 16.9203 2.71683C16.8394 2.68328 16.7526 2.66602 16.6649 2.66602C16.5772 2.66602 16.4904 2.68328 16.4095 2.71683C16.3285 2.75037 16.2549 2.79954 16.1929 2.86152L9.99824 9.05752L3.80357 2.86152C3.74159 2.79954 3.668 2.75037 3.58702 2.71683C3.50603 2.68328 3.41923 2.66602 3.33157 2.66602C3.24391 2.66602 3.15711 2.68328 3.07613 2.71683C2.99514 2.75037 2.92156 2.79954 2.85957 2.86152C2.79759 2.92351 2.74842 2.99709 2.71487 3.07808C2.68133 3.15907 2.66406 3.24587 2.66406 3.33352C2.66406 3.42118 2.68133 3.50798 2.71487 3.58897C2.74842 3.66995 2.79759 3.74354 2.85957 3.80552L9.05557 10.0002L2.85957 16.1949C2.73439 16.32 2.66406 16.4898 2.66406 16.6669C2.66406 16.8439 2.73439 17.0137 2.85957 17.1389C2.98475 17.264 3.15454 17.3344 3.33157 17.3344C3.50861 17.3344 3.67839 17.264 3.80357 17.1389L9.99824 10.9429L16.1929 17.1389C16.3181 17.264 16.4879 17.3344 16.6649 17.3344C16.8419 17.3344 17.0117 17.264 17.1369 17.1389C17.2621 17.0137 17.3324 16.8439 17.3324 16.6669C17.3324 16.4898 17.2621 16.32 17.1369 16.1949L10.9409 10.0002L17.1369 3.80552Z" fill="white"/>
</g>
</svg>
