<svg width="34" height="34" viewBox="0 0 34 34" fill="none" xmlns="http://www.w3.org/2000/svg">
<g id="Group 2518">
<g id="Group">
<path id="Vector" d="M13.0469 19.4712L24.4798 13.1225L20.5041 10.8284L9.78125 17.4036L13.0469 19.4712Z" fill="#FEFEFE"/>
<path id="Vector_2" d="M21.8683 14.2552C22.3598 13.9454 22.8556 13.6435 23.3778 13.3872C23.7026 13.4425 23.9544 13.6505 24.2265 13.8076C26.1318 14.9108 28.0442 15.9999 29.9469 17.1075C29.9943 17.1347 30.0434 17.1593 30.0891 17.1891C30.1549 17.2312 30.233 17.2848 30.2224 17.3629C30.2084 17.4708 30.0987 17.4743 30.0136 17.4813C29.6774 17.5094 29.3668 17.6025 29.1087 17.8271C28.8077 18.0887 28.8024 18.323 29.0807 18.6073C29.2386 18.7679 29.4317 18.8662 29.6458 18.9277C29.7301 18.9514 29.8187 18.9601 29.9021 18.9865C30.0022 19.0189 30.14 19.0233 30.1522 19.1576C30.1619 19.2691 30.0496 19.3156 29.9644 19.3639C29.7257 19.4973 29.494 19.6447 29.2571 19.7816C27.6247 20.7215 25.9932 21.6632 24.3643 22.6084C24.2792 22.6576 24.1923 22.705 24.1045 22.7497C23.9474 22.8305 23.821 22.8287 23.7131 22.6602C23.4287 22.217 22.9908 22.0889 22.4941 22.0836C22.0983 22.0792 21.7033 22.0661 21.347 22.2881C21.2145 22.3706 21.0793 22.4522 21.017 22.5979C20.9029 22.8673 20.7458 22.848 20.5229 22.7225C19.2451 22.0002 17.9787 21.2586 16.707 20.5267C15.8908 20.0563 15.0746 19.5868 14.2584 19.1155C14.1408 19.0479 13.9407 19.011 14.0372 18.789C14.5375 18.5003 15.0377 18.2115 15.538 17.9237C15.9513 17.7815 16.3603 17.9307 16.7711 17.9447C18.3841 17.9983 19.9173 17.7543 21.2268 16.7196C21.9175 16.1737 22.2589 15.3206 21.9008 14.5422C21.8613 14.4518 21.8306 14.3561 21.8683 14.2552Z" fill="#269D48"/>
<path id="Vector_3" d="M12.5207 16.2136C12.0187 16.5023 11.5158 16.7911 11.0138 17.0798C10.8479 17.1711 10.7207 17.0675 10.589 16.9938C9.0909 16.1504 7.61298 15.2728 6.11838 14.4224C5.59443 14.1249 5.08014 13.8115 4.55357 13.5184C4.48687 13.4816 4.41754 13.4473 4.35786 13.3991C4.18145 13.2569 4.19023 13.1928 4.39823 13.1147C4.47019 13.0875 4.54567 13.0735 4.62114 13.0603C4.71856 13.0427 4.81422 13.0199 4.90725 12.9866C5.2899 12.8505 5.54178 12.5978 5.5172 12.3371C5.48385 11.9791 5.21267 11.8281 4.91603 11.7158C4.72119 11.642 4.51583 11.6017 4.31134 11.5639C4.25868 11.5543 4.19813 11.5394 4.17794 11.4823C4.15074 11.4016 4.22095 11.3656 4.27097 11.3296C4.45703 11.1936 4.65888 11.083 4.8581 10.968C6.56333 9.97982 8.2712 8.996 9.97028 7.99726C10.0554 7.94723 10.1441 7.90423 10.2301 7.85596C10.4363 7.73923 10.6039 7.75503 10.7233 7.98058C10.804 8.13329 10.9436 8.21842 11.0928 8.29302C11.6773 8.58614 12.2741 8.58527 12.877 8.36235C13.0885 8.28424 13.2754 8.15698 13.3693 7.94986C13.4913 7.68219 13.6423 7.70237 13.8617 7.83051C15.896 9.01618 17.9435 10.1773 19.9744 11.3673C20.1025 11.4428 20.3035 11.4727 20.2894 11.6947C19.8471 11.9843 19.389 12.2476 18.9195 12.4907C18.6386 12.6074 18.3569 12.517 18.0787 12.4872C16.7719 12.3503 15.502 12.4793 14.2856 12.9936C13.716 13.2349 13.1912 13.5509 12.7998 14.0406C12.3583 14.5926 12.2117 15.2017 12.5128 15.8748C12.5619 15.9854 12.6155 16.0986 12.5207 16.2136Z" fill="#269D48"/>
<path id="Vector_4" d="M33.3219 21.5481C32.0405 22.2993 30.761 23.0541 29.477 23.8001C27.1416 25.156 24.8036 26.5058 22.4665 27.8573C22.2822 27.8451 22.3129 27.6941 22.3112 27.5888C22.3015 26.6804 22.305 25.7721 22.3068 24.8638C22.3077 24.6031 22.4805 24.4785 22.6736 24.3635C23.4547 23.8975 24.2463 23.449 25.0327 22.9927C27.3172 21.6666 29.5999 20.3396 31.887 19.0196C32.2757 18.795 32.654 18.5501 33.0568 18.35C33.1867 18.2859 33.3482 18.2052 33.3447 18.4667C33.3342 19.4944 33.3798 20.5221 33.3219 21.5481Z" fill="#218241"/>
<path id="Vector_5" d="M33.3246 21.5483C33.3229 20.575 33.315 19.6026 33.3246 18.6293C33.3273 18.3573 33.2886 18.3107 33.0341 18.4599C31.0182 19.6403 28.9962 20.8094 26.975 21.9801C25.5769 22.7902 24.1815 23.6037 22.7773 24.4032C22.5052 24.5577 22.3692 24.7227 22.3824 25.0641C22.414 25.8829 22.3894 26.7035 22.3929 27.5241C22.3929 27.6382 22.3473 27.7689 22.4693 27.8576C22.4368 27.9155 22.3885 27.9295 22.328 27.905C22.2279 27.7716 22.2419 27.6154 22.2419 27.4626C22.2411 26.7079 22.2226 25.9522 22.2498 25.1984C22.263 24.8333 22.1401 24.6191 21.8216 24.4383C19.8021 23.2904 17.7906 22.1293 15.7809 20.9664C15.0226 20.5276 14.2547 20.1037 13.5052 19.6482C13.3138 19.5315 13.2682 19.5745 13.27 19.7852C13.277 20.5943 13.2752 21.4044 13.2708 22.2144C13.27 22.3636 13.3068 22.5242 13.1866 22.6515L13.1576 22.6541L13.1295 22.6453C13.0163 22.5225 13.0146 22.3698 13.0137 22.2171C13.0119 21.3816 13.0093 20.5461 13.0163 19.7106C13.0181 19.5438 12.9856 19.3516 13.1919 19.2586C13.4753 19.1015 13.7579 18.9453 14.0414 18.7882C14.116 19.0839 14.4161 19.105 14.6171 19.2226C16.6164 20.3925 18.6279 21.5422 20.6385 22.6936C20.7122 22.7357 20.8202 22.8709 20.8895 22.6699C21.0343 22.2487 21.4152 22.1188 21.7838 22.0336C22.1437 21.9503 22.5281 21.9608 22.894 22.031C23.2784 22.1047 23.6225 22.2732 23.8068 22.6541C23.9007 22.849 24.0121 22.7077 24.0973 22.6594C24.8011 22.2609 25.5006 21.8555 26.2009 21.45C27.506 20.6961 28.8101 19.9405 30.1502 19.1656C30.016 19.0866 29.901 19.0637 29.7764 19.0418C29.4692 18.9883 29.1936 18.8663 28.9769 18.6276C28.7074 18.3309 28.7074 18.0869 29.0032 17.8052C29.327 17.4954 29.729 17.3866 30.1862 17.3436C29.7123 17.0663 29.2393 16.7854 28.7627 16.5116C26.9908 15.4927 25.218 14.4764 23.4461 13.4575C23.4197 13.4425 23.4022 13.4101 23.3802 13.3864C23.3864 13.3776 23.3899 13.3653 23.3987 13.3592C24.0999 12.8905 24.099 12.8923 24.8248 13.3109C27.5806 14.8994 30.3363 16.4897 33.0964 18.0703C33.315 18.1958 33.3975 18.3292 33.3922 18.5837C33.3729 19.4683 33.3834 20.3539 33.3773 21.2394C33.3764 21.3438 33.4238 21.4605 33.3246 21.5483Z" fill="#5ABB71"/>
<path id="Vector_6" d="M20.2897 11.6953C19.9255 11.3582 19.4691 11.1634 19.0479 10.9186C17.2917 9.89612 15.5242 8.89211 13.7637 7.87582C13.6197 7.79244 13.5653 7.74417 13.4688 7.94954C13.2195 8.47699 12.6921 8.54369 12.191 8.60161C11.7443 8.65339 11.3248 8.52438 10.9333 8.30673C10.8456 8.25846 10.742 8.2137 10.7104 8.12155C10.5884 7.76173 10.3857 7.84598 10.1426 7.98903C8.50318 8.95091 6.86026 9.9084 5.21822 10.8659C4.88911 11.0581 4.55736 11.2459 4.15278 11.4794C4.49593 11.496 4.75483 11.5531 4.99706 11.654C5.30686 11.783 5.60525 11.9533 5.60964 12.3438C5.61403 12.7361 5.32002 12.9152 5.00671 13.038C4.77853 13.1275 4.53016 13.167 4.24581 13.2408C4.80135 13.5655 5.32529 13.8744 5.85274 14.1789C7.33857 15.0364 8.82527 15.8929 10.3146 16.7442C10.5384 16.8724 10.7403 17.0523 11.0132 17.0821C10.7517 17.2384 10.4901 17.3946 10.2286 17.5499C10.1988 17.5929 10.1636 17.6289 10.1066 17.6315C9.76345 17.5631 9.49402 17.3437 9.20353 17.176C6.6233 15.6893 4.04308 14.2026 1.46197 12.7159C1.17587 12.5509 1.16095 12.5597 1.16007 12.8827C1.15831 13.6804 1.16095 14.4791 1.15744 15.2769C1.15656 15.4155 1.18903 15.5638 1.07845 15.6832C0.95997 15.6051 1.01087 15.4848 1.01087 15.383C1.00824 14.4642 1.01789 13.5462 1.00999 12.6273C1.00824 12.4281 1.07143 12.3157 1.24695 12.2139C4.78028 10.1726 8.3101 8.12594 11.8382 6.07668C11.9707 5.99945 12.0751 5.96347 12.2261 6.05123C15.1705 7.7547 18.1193 9.45204 21.0664 11.1511C21.0848 11.1617 21.0989 11.1801 21.1331 11.2099C20.8593 11.3933 20.5837 11.5601 20.2897 11.6953Z" fill="#5ABB71"/>
<path id="Vector_7" d="M13.1836 22.6518C13.1836 21.5802 13.1836 20.5095 13.1836 19.38C13.5469 19.5862 13.8769 19.7697 14.2034 19.9575C16.8424 21.4802 19.4797 23.0046 22.1214 24.5229C22.2767 24.6124 22.3329 24.7125 22.332 24.8862C22.325 25.8929 22.3267 26.8986 22.3258 27.9053C21.1788 27.2523 20.0291 26.6029 18.8855 25.9447C16.9828 24.8503 15.0837 23.7497 13.1836 22.6518Z" fill="#269D48"/>
<path id="Vector_8" d="M1.07422 15.6838C1.07422 14.6149 1.07422 13.545 1.07422 12.4059C4.12661 14.1585 7.13248 15.8848 10.1384 17.6102C10.2393 17.6971 10.2516 17.8182 10.2524 17.9376C10.2595 18.817 10.263 19.6972 10.2489 20.5766C10.2472 20.696 10.2682 20.8495 10.0883 20.8882C7.14038 19.1864 4.19243 17.4847 1.2436 15.783C1.18743 15.7505 1.13126 15.7163 1.07422 15.6838Z" fill="#269D48"/>
<path id="Vector_9" d="M12.5215 16.2143C12.5311 16.1239 12.5031 16.0432 12.46 15.965C11.9967 15.1164 12.4056 14.1729 13.0647 13.6332C13.9792 12.8846 15.0543 12.5493 16.2172 12.4054C17.129 12.2922 18.0225 12.3887 18.9211 12.4923C17.6205 13.2532 16.3207 14.0167 15.0192 14.775C14.1881 15.2577 13.3544 15.7342 12.5215 16.2143Z" fill="#5ABB71"/>
<path id="Vector_10" d="M21.8685 14.2557C22.518 15.4203 21.9115 16.4893 20.7688 17.1624C19.8895 17.6802 18.9267 17.897 17.9157 18.0155C17.1083 18.1094 16.3307 17.9383 15.5391 17.9233C17.6489 16.6999 19.7587 15.4774 21.8685 14.2557Z" fill="#5ABB71"/>
<path id="Vector_11" d="M10.0938 20.8865C10.1526 20.8566 10.1534 20.8013 10.1534 20.7469C10.1508 19.7008 10.1473 18.6547 10.1438 17.6085C10.1727 17.5883 10.2008 17.5682 10.2298 17.548C10.501 17.8472 10.8845 17.9701 11.218 18.1711C11.8069 18.5265 12.4054 18.867 13.0013 19.2093C13.0557 19.24 13.1268 19.2427 13.19 19.2585C13.1435 19.3339 13.1163 19.4121 13.1163 19.5042C13.1216 20.5512 13.1242 21.5982 13.1277 22.6452C12.1167 22.059 11.1057 21.4727 10.0938 20.8865Z" fill="#BEBEBE"/>
<path id="Vector_12" d="M23.6581 19.5745C23.3088 19.6061 22.956 19.4964 22.6348 19.2989C22.1697 19.0137 22.1539 18.5573 22.5857 18.2396C23.1333 17.8368 24.2707 17.8351 24.8254 18.237C25.2694 18.5591 25.2405 19.0207 24.7587 19.3147C24.4515 19.4999 24.1496 19.5745 23.6581 19.5745Z" fill="#5ABB71"/>
<path id="Vector_13" d="M11.3147 10.8415C11.8123 10.8037 12.2485 10.8906 12.589 11.261C12.854 11.5488 12.8198 11.8946 12.4986 12.1272C11.8939 12.5643 10.8065 12.5555 10.1904 12.1079C9.79725 11.8218 9.82095 11.3514 10.2413 11.0951C10.5783 10.8906 10.939 10.7906 11.3147 10.8415Z" fill="#5ABB71"/>
</g>
</g>
</svg>
