<svg width="32" height="32" viewBox="0 0 32 32" fill="none" xmlns="http://www.w3.org/2000/svg">
<g id="fluent:chat-multiple-28-regular">
<path id="Vector" d="M4.00138 13.7144C4.00164 11.8366 4.61856 10.0108 5.75734 8.51765C6.89611 7.0245 8.49372 5.94664 10.3046 5.44972C12.1155 4.9528 14.0395 5.06432 15.7809 5.76715C17.5222 6.46997 18.9846 7.72519 19.9432 9.33991C20.9018 10.9546 21.3037 12.8395 21.087 14.7048C20.8703 16.5701 20.047 18.3126 18.7437 19.6645C17.4404 21.0164 15.7292 21.903 13.8731 22.1878C12.017 22.4727 10.1187 22.1401 8.46995 21.2413C8.27614 21.1354 8.04892 21.1083 7.83567 21.1659L4.12138 22.1601L5.11796 18.4436C5.17486 18.231 5.14785 18.0047 5.04253 17.8116C4.35717 16.5549 3.99912 15.1459 4.00138 13.7144ZM12.5728 3.42871C10.8186 3.42838 9.09348 3.8767 7.56139 4.73105C6.0293 5.5854 4.74117 6.8174 3.81945 8.30993C2.89773 9.80246 2.37305 11.5059 2.29527 13.2584C2.2175 15.0109 2.58922 16.7541 3.3751 18.3224L2.33738 22.1956C2.2728 22.4376 2.273 22.6924 2.33797 22.9343C2.40293 23.1763 2.53038 23.3969 2.70751 23.574C2.88465 23.7511 3.10526 23.8786 3.3472 23.9436C3.58914 24.0085 3.84391 24.0087 4.08596 23.9441L7.95681 22.9087C9.34411 23.6044 10.8709 23.9772 12.4227 23.9991C13.9745 24.021 15.5112 23.6914 16.9176 23.0351C18.3239 22.3788 19.5636 21.4127 20.5435 20.2093C21.5235 19.0058 22.2185 17.5962 22.5763 16.0861C22.9342 14.5759 22.9457 13.0043 22.6099 11.4891C22.2741 9.97388 21.5998 8.55428 20.6375 7.33667C19.6752 6.11905 18.4498 5.13499 17.0531 4.45821C15.6565 3.78143 14.1248 3.42947 12.5728 3.42871ZM19.43 28.5716C17.9757 28.5733 16.5377 28.2658 15.2113 27.6696C13.8849 27.0734 12.7003 26.202 11.7362 25.1133C12.5402 25.1718 13.348 25.1458 14.1465 25.0356C15.6533 26.2185 17.5143 26.8602 19.43 26.8573C20.8636 26.8595 22.2747 26.5002 23.5328 25.8127C23.7266 25.7068 23.9538 25.6798 24.1671 25.7373L27.8814 26.7316L26.8848 23.015C26.8279 22.8025 26.8549 22.5762 26.9602 22.383C27.6454 21.1262 28.0034 19.7173 28.0014 18.2859C28.002 16.7641 27.5974 15.2696 26.8292 13.956C26.0609 12.6424 24.9566 11.557 23.63 10.8116C23.4253 10.0312 23.1379 9.27495 22.7728 8.55557C24.1598 9.03248 25.4289 9.80039 26.4949 10.8078C27.5609 11.8153 28.3993 13.039 28.9537 14.3969C29.5081 15.7548 29.7659 17.2155 29.7096 18.6812C29.6534 20.1469 29.2845 21.5836 28.6277 22.895L29.6654 26.767C29.7301 27.0092 29.7299 27.2641 29.6649 27.5061C29.5999 27.7482 29.4723 27.9689 29.295 28.1461C29.1177 28.3233 28.8969 28.4507 28.6548 28.5155C28.4127 28.5804 28.1578 28.5804 27.9157 28.5156L24.046 27.4801C22.6138 28.2 21.0328 28.5738 19.43 28.5716Z" fill="white"/>
</g>
</svg>
