<svg width="80" height="80" viewBox="0 0 80 80" fill="none" xmlns="http://www.w3.org/2000/svg">
<g id="Group 2517">
<g id="Group">
<path id="Vector" d="M62.421 73.3097C62.1886 73.3188 61.9592 73.3311 61.7267 73.3311C45.3603 73.3311 28.9909 73.3311 12.6245 73.3311C9.01847 73.3311 6.6909 70.9943 6.6909 67.3791C6.6909 55.0867 6.73984 42.7944 6.66032 30.505C6.63585 26.8256 9.39162 24.1983 12.7071 24.4246C12.8203 24.4338 12.9365 24.4124 13.0527 24.4063C13.3525 24.2717 13.6614 24.1983 13.9948 24.2013C15.7779 24.2105 17.558 24.186 19.3411 24.2136C26.905 24.186 34.4688 24.2074 42.0326 24.2013C43.2132 24.2013 44.3908 24.186 45.5714 24.2166C47.4708 24.1952 49.3701 24.1952 51.2726 24.2166C52.2574 24.186 53.2423 24.2166 54.2241 24.2136C56.6862 24.1952 59.1514 24.2075 61.6136 24.2075C61.843 24.2075 62.0754 24.2166 62.2987 24.2686C62.8156 24.4644 63.3355 24.654 63.828 24.914C65.7518 25.9294 66.8131 27.5719 66.8896 29.6976C67.0028 32.9274 66.9263 36.1634 66.9171 39.3993C66.9171 39.5614 66.9018 39.7236 66.8437 39.8765C66.8131 39.9529 66.7611 40.0172 66.6938 40.0661C66.3696 40.2313 66.0148 40.1885 65.6723 40.1885C62.733 40.1915 59.7968 40.1885 56.8575 40.1915C51.7956 40.1946 47.9418 44.1095 48.0213 49.1684C48.0886 53.6308 51.9913 57.5366 56.4538 57.5733C59.5062 57.6009 62.5617 57.5764 65.6142 57.5795C65.9598 57.5795 66.3085 57.5397 66.6449 57.6712C66.7214 57.7079 66.7795 57.766 66.8192 57.8394C66.9355 58.1025 66.9202 58.3808 66.9232 58.6591C66.9263 61.6902 66.966 64.7212 66.911 67.7492C66.8651 70.1196 65.7763 71.8935 63.6169 72.9702C63.2315 73.1567 62.8125 73.172 62.421 73.3097Z" fill="#FBB760"/>
<path id="Vector_2" d="M51.2745 24.4062C49.3843 24.4062 47.4941 24.4032 45.6039 24.4032C44.6374 23.8312 43.9187 22.9718 43.1143 22.2194C40.8723 20.1212 38.5754 18.0811 36.3701 15.9432C35.5229 15.1204 35.2446 15.148 34.2934 15.9004C33.0363 16.8944 31.4244 16.9372 30.1123 16.0105C28.947 15.1847 28.7268 15.2061 27.7052 16.2276C25.188 18.7448 22.6708 21.262 20.1536 23.7792C19.9089 24.0239 19.6734 24.2808 19.3339 24.4062C17.2419 24.4062 15.1467 24.4062 13.0547 24.4062C13.1923 24.2502 13.3208 24.0881 13.4676 23.9444C18.7956 18.6102 24.1236 13.2792 29.4578 7.94809C31.1706 6.23529 33.0699 6.24141 34.798 7.94503C36.1958 9.32445 37.5416 10.7589 39.0127 12.0649C39.3553 12.0772 39.5204 12.3585 39.7254 12.5604C41.114 13.9337 42.4873 15.3223 43.8758 16.6986C45.9465 18.7907 48.0355 20.8644 50.1184 22.9442C50.4059 23.244 50.7087 23.5284 50.9901 23.8343C51.1369 23.9903 51.3724 24.1218 51.2745 24.4062Z" fill="#59E68A"/>
<path id="Vector_3" d="M71.1642 40.1223C72.7547 40.8411 73.4398 42.0523 73.4061 43.814C73.345 47.1937 73.3419 50.5734 73.4061 53.9532C73.4398 55.7149 72.7516 56.9261 71.1642 57.6448C70.9899 57.8437 70.7727 57.9599 70.5097 57.9721C69.3902 58.0149 68.2708 58.0149 67.1514 57.9721C66.9862 57.966 66.8425 57.8956 66.714 57.7947L66.7293 57.7672C66.6895 57.4155 66.977 57.2931 67.1911 57.1371C68.2739 56.3633 68.7632 55.3326 68.751 53.9899C68.7174 50.5643 68.7204 47.1387 68.751 43.7131C68.7632 42.4224 68.283 41.4314 67.2462 40.682C67.0168 40.5138 66.6926 40.3945 66.7262 40.0122L66.7109 39.9847C66.8975 39.8287 67.1208 39.792 67.3532 39.7889C68.3595 39.7767 69.3627 39.7706 70.369 39.792C70.681 39.7889 70.9593 39.8746 71.1642 40.1223Z" fill="#A9744C"/>
<path id="Vector_4" d="M71.1646 40.1235C69.9412 39.8513 68.6994 40.0531 67.4699 39.992C67.2191 39.9797 66.9652 39.9797 66.7144 39.9767C66.7175 36.5817 66.7266 33.1866 66.7175 29.7947C66.7113 27.6017 65.2004 25.58 62.9615 24.7297C62.7658 24.6563 62.5639 24.6104 62.4141 24.4544C63.2338 24.0354 64.0657 24.1455 64.8976 24.4086C65.8641 24.43 66.8245 24.4392 67.7482 24.8337C69.8188 25.7207 71.1646 27.6935 71.1646 29.9293C71.1677 33.3243 71.1646 36.7254 71.1646 40.1235Z" fill="#FBA952"/>
<path id="Vector_5" d="M66.7083 57.789C67.7635 57.7829 68.8187 57.7707 69.8708 57.7768C70.3082 57.7799 70.7364 57.7584 71.1585 57.6392C71.1585 61.0556 71.1616 64.4751 71.1585 67.8915C71.1554 70.8338 68.6719 73.3265 65.7387 73.3296C64.6315 73.3296 63.5213 73.3174 62.4141 73.3082C63.402 72.7852 64.4939 72.4334 65.2524 71.5312C66.1272 70.4943 66.693 69.3259 66.7022 67.9618C66.7297 64.576 66.7083 61.181 66.7083 57.789Z" fill="#FBA952"/>
<path id="Vector_6" d="M50.4815 9.97314C52.6011 12.0316 54.736 14.0747 56.724 16.2616C56.7638 16.5338 56.5619 16.6806 56.4029 16.8396C54.944 18.3077 53.4789 19.7728 52.0108 21.2348C51.8487 21.3969 51.6896 21.5712 51.4388 21.5926C51.185 21.5712 51.0198 21.4061 50.8699 21.2317C49.2948 19.3874 47.4749 17.7847 45.8019 16.0383C45.5817 15.8089 45.3003 15.6223 45.2422 15.2736C45.2544 15.0198 45.4288 14.8607 45.5878 14.6986C47.062 13.2152 48.5424 11.7379 50.0227 10.2637C50.1542 10.1291 50.2827 9.98844 50.4815 9.97314Z" fill="#E6E9EE"/>
<path id="Vector_7" d="M51.4677 21.5321C53.2172 19.7765 54.9697 18.0178 56.7192 16.2622C57.126 16.4947 57.4044 16.8739 57.7286 17.1951C60.1234 19.593 62.5091 22.0001 64.8978 24.401C64.069 24.4163 63.2401 24.4316 62.4143 24.4469C59.6799 24.4316 56.9425 24.4163 54.2082 24.401C53.1254 23.6517 52.2782 22.6577 51.4065 21.6912C51.3851 21.6269 51.4065 21.5688 51.4677 21.5321Z" fill="#68B0FB"/>
<path id="Vector_8" d="M50.4736 9.9739C48.9199 11.5399 47.3661 13.1089 45.8124 14.678C45.635 14.8584 45.4698 15.0481 45.2985 15.2316C45.2526 15.2866 45.1945 15.305 45.1272 15.2836C43.5796 13.9164 42.1849 12.3932 40.7199 10.9404C40.6097 10.8303 40.4996 10.6957 40.5853 10.5153C41.5732 9.51511 42.5213 8.4752 43.5551 7.52704C44.8336 6.35255 46.8156 6.38926 48.0879 7.57292C48.9137 8.34062 49.6814 9.17255 50.4736 9.9739Z" fill="#68B0FB"/>
<path id="Vector_9" d="M40.5938 10.5159C41.7163 11.8188 43.0071 12.9566 44.1938 14.1984C44.5241 14.544 44.8514 14.8957 45.1817 15.2444C44.9737 16.0213 44.3987 16.4495 43.7258 16.7859C42.1568 15.2108 40.5847 13.6387 39.0156 12.0635C39.5142 11.5191 40.0097 10.9716 40.5938 10.5159Z" fill="#539EFA"/>
<path id="Vector_10" d="M66.7274 40.0041C67.0761 40.4445 67.6235 40.6341 68.0028 41.0501C68.6084 41.7138 68.9418 42.4601 68.9418 43.3563C68.9387 46.944 68.9234 50.5347 68.951 54.1224C68.9632 55.5232 68.3943 56.5601 67.2535 57.3278C67.0699 57.4532 66.8191 57.5144 66.7304 57.759C63.21 57.7621 59.6866 57.8722 56.1723 57.7437C52.1289 57.5939 48.6207 54.4497 47.9386 50.3267C47.1617 45.6135 50.2998 41.1786 54.7378 40.2151C55.322 40.0897 55.9092 39.9857 56.5148 39.9857C59.9221 39.998 63.3232 39.998 66.7274 40.0041Z" fill="#B28051"/>
<path id="Vector_11" d="M19.3281 24.404C21.8056 21.9113 24.283 19.4186 26.7604 16.9289C27.1519 16.5343 27.5434 16.1398 27.938 15.7544C28.6231 15.0846 29.1798 15.0448 29.9444 15.6749C30.6326 16.2468 31.3972 16.5649 32.2903 16.5007C32.9877 16.4518 33.6361 16.256 34.1836 15.7666C35.1317 14.9225 35.5538 14.9378 36.4836 15.8125C38.1475 17.3785 39.7991 18.9567 41.4721 20.5105C42.8577 21.7951 44.3197 22.9971 45.592 24.404C44.8304 24.4132 44.0689 24.4285 43.3073 24.4285C35.5905 24.4315 27.8738 24.4285 20.157 24.4285C19.8817 24.4254 19.6065 24.4132 19.3281 24.404Z" fill="#8BE9A2"/>
<path id="Vector_12" d="M51.4571 21.6556C52.4144 22.5304 53.332 23.4449 54.2036 24.4053C53.2249 24.4053 52.2462 24.4083 51.2674 24.4083C50.8515 23.9618 50.4355 23.5153 50.0195 23.0687C50.3651 22.46 50.8239 21.9707 51.4571 21.6556Z" fill="#539EFA"/>
<path id="Vector_13" d="M51.4569 21.6528C50.9798 22.1239 50.4996 22.5949 50.0225 23.0659C47.9212 20.9708 45.82 18.8787 43.7188 16.7836C44.2051 16.2698 44.6883 15.7559 45.1746 15.2421C45.2174 15.2421 45.2603 15.239 45.3 15.2299C46.8201 16.9274 48.4901 18.4781 50.0989 20.0869C50.5669 20.5548 50.8636 21.1879 51.4661 21.5305C51.4539 21.5703 51.4508 21.61 51.4569 21.6528Z" fill="#D7DADF"/>
<path id="Vector_14" d="M55.8765 53.2206C53.7752 52.8444 52.2643 51.0093 52.2735 48.8469C52.2827 46.7273 53.7997 44.9135 55.8765 44.5435C57.5801 44.9625 59.0604 46.7395 59.0727 48.9172C59.0849 50.8992 57.681 52.7343 55.8765 53.2206Z" fill="#E6E9EE"/>
<path id="Vector_15" d="M55.8789 53.2183C56.5151 52.7381 57.243 52.4017 57.7997 51.7838C59.2127 50.227 59.2127 47.5294 57.7997 45.9726C57.24 45.3578 56.5151 45.0213 55.8789 44.5381C58.2676 43.9111 60.9836 45.8533 61.1672 48.3215C61.3507 50.7714 60.0019 52.68 57.6468 53.2458C57.0687 53.3896 56.4631 53.4202 55.8789 53.2183Z" fill="#D7DADF"/>
</g>
</g>
</svg>
