<svg width="24" height="24" viewBox="0 0 24 24" fill="none" xmlns="http://www.w3.org/2000/svg">
<g id="streamline:money-cash-bill-2-currency-billing-payment-finance-cash-bill-money-accounting">
<g id="Group">
<g id="Group 539">
<path id="Vector" d="M19.8062 5H3.48385C2.66434 5 2 5.66434 2 6.48385V16.8708C2 17.6903 2.66434 18.3546 3.48385 18.3546H19.8062C20.6257 18.3546 21.29 17.6903 21.29 16.8708V6.48385C21.29 5.66434 20.6257 5 19.8062 5Z" stroke="#040D12" stroke-width="1.4" stroke-linecap="round" stroke-linejoin="round"/>
<path id="Vector_2" d="M11.6437 13.9027C12.873 13.9027 13.8695 12.9062 13.8695 11.6769C13.8695 10.4477 12.873 9.45117 11.6437 9.45117C10.4145 9.45117 9.41797 10.4477 9.41797 11.6769C9.41797 12.9062 10.4145 13.9027 11.6437 13.9027Z" stroke="#040D12" stroke-width="1.4" stroke-linecap="round" stroke-linejoin="round"/>
<path id="Vector_3" d="M5.71094 8.70898H6.45286M16.8398 14.6444H17.5817" stroke="#040D12" stroke-width="1.6" stroke-linecap="round" stroke-linejoin="round"/>
</g>
</g>
</g>
</svg>
