<svg width="24" height="24" viewBox="0 0 24 24" fill="none" xmlns="http://www.w3.org/2000/svg">
<path d="M2 21.5685C2 19.1217 2 16.6739 2 14.2272C2.15535 13.8885 2.42397 13.7763 2.78753 13.7924C3.24279 13.8129 3.7002 13.7978 4.15546 13.7978C4.21695 13.7978 4.27844 13.7978 4.34641 13.7978C4.34641 13.6878 4.34641 13.6101 4.34641 13.5324C4.34641 11.0997 4.34748 8.66595 4.34425 6.23324C4.34425 6.02179 4.40035 5.84271 4.51686 5.66794C5.25368 4.57188 5.99051 3.47581 6.71654 2.37327C6.88807 2.11327 7.1006 2 7.41345 2C10.8743 2.00539 14.3351 2.00539 17.7959 2C18.1098 2 18.3202 2.11759 18.4906 2.3765C19.2134 3.47365 19.9449 4.5654 20.6795 5.655C20.8047 5.84163 20.8608 6.03258 20.8608 6.25697C20.8565 8.73607 20.8597 11.2141 20.8543 13.6932C20.8543 13.8453 20.8964 13.9176 21.0377 13.9802C21.4013 14.1409 21.6731 14.4117 21.8393 14.7731C21.9202 14.9478 21.9687 15.1377 22.0324 15.3211C22.0324 15.4905 22.0324 15.6599 22.0324 15.8292C21.9245 16.0763 21.8576 16.3535 21.7012 16.5661C20.7367 17.8757 19.7626 19.1778 18.7711 20.467C18.2317 21.1682 17.5078 21.6203 16.6502 21.85C16.4258 21.9105 16.196 21.9504 15.9684 22C13.8162 22 11.665 22 9.51281 22C9.49555 21.9914 9.47829 21.9773 9.46103 21.9763C8.40596 21.9159 7.37569 21.7227 6.36162 21.4293C6.31523 21.4164 6.23647 21.4293 6.20627 21.4606C5.92038 21.7573 5.56114 21.9083 5.17061 22C4.25794 22 3.34527 22 2.43152 22C2.23734 21.904 2.09386 21.7616 2 21.5685ZM5.52123 6.69389C5.52123 6.78235 5.52123 6.85247 5.52123 6.92368C5.52123 7.56772 5.52123 8.21285 5.52123 8.8569C5.52123 10.4773 5.52015 12.0976 5.52338 13.7191C5.52338 13.787 5.54064 13.8831 5.58703 13.9165C5.85458 14.1128 6.13291 14.2952 6.42958 14.4969C6.40153 14.512 6.42095 14.5055 6.43497 14.4937C7.9507 13.2379 10.2184 13.2401 11.7535 14.5778C12.0663 14.8507 12.4342 14.9716 12.8496 14.9705C13.7428 14.9673 14.6361 14.964 15.5293 14.9705C16.319 14.9759 16.8767 15.3502 17.2058 16.0644C17.223 16.1022 17.2446 16.1378 17.2705 16.1885C17.7236 15.703 18.1638 15.2326 18.6028 14.7612C18.9211 14.4203 19.2124 14.046 19.6687 13.9036C19.6687 11.4859 19.6687 9.09423 19.6687 6.70576C18.0893 6.70576 16.5218 6.70576 14.9478 6.70576C14.9478 6.79206 14.9478 6.86326 14.9478 6.93446C14.9478 8.19667 14.9457 9.45995 14.95 10.7222C14.9511 10.9897 14.8831 11.2109 14.6328 11.3435C14.3815 11.4773 14.1592 11.405 13.9392 11.254C13.5368 10.9778 13.1257 10.7135 12.7223 10.4384C12.6338 10.378 12.5723 10.3759 12.4817 10.4373C12.0728 10.7168 11.6564 10.9843 11.2475 11.2626C11.0329 11.4083 10.8139 11.473 10.5711 11.3446C10.3219 11.213 10.2496 10.994 10.2507 10.7254C10.255 9.45024 10.2529 8.17401 10.2529 6.89886C10.2529 6.8309 10.2529 6.76293 10.2529 6.69389C8.66487 6.69389 7.10815 6.69389 5.52123 6.69389ZM6.68957 20.2976C7.67345 20.604 8.96801 20.8176 9.96591 20.8209C11.7848 20.8273 13.6036 20.8176 15.4225 20.8284C16.5143 20.8349 17.3719 20.4066 18.0192 19.5306C18.673 18.646 19.3397 17.7711 19.9999 16.8908C20.2534 16.552 20.5145 16.2187 20.7561 15.8713C20.9341 15.6156 20.8748 15.292 20.6385 15.1C20.412 14.9144 20.0938 14.9252 19.8694 15.1269C19.8165 15.1744 19.7701 15.2294 19.7205 15.2823C18.9157 16.1442 18.1098 17.004 17.3083 17.8682C16.9641 18.2382 16.5477 18.4723 16.0407 18.4766C14.4764 18.4885 12.9111 18.4842 11.3468 18.4809C11.0954 18.4809 10.9109 18.3526 10.8106 18.1228C10.638 17.7268 10.9314 17.3137 11.3889 17.3126C12.7579 17.3104 14.1269 17.3126 15.4959 17.3115C15.8929 17.3115 16.1593 17.0731 16.1593 16.7257C16.1593 16.3783 15.8918 16.141 15.4948 16.141C14.6738 16.1399 13.8518 16.1248 13.0308 16.1453C12.2098 16.1647 11.5086 15.9123 10.8764 15.3858C10.1644 14.7936 9.32834 14.622 8.41674 14.8033C7.78456 14.9284 7.28507 15.278 6.82011 15.6998C6.72409 15.7872 6.68526 15.8702 6.68526 15.9986C6.68957 17.3719 6.68742 18.7452 6.68742 20.1186C6.68957 20.1736 6.68957 20.2318 6.68957 20.2976ZM3.18021 20.8263C3.76601 20.8263 4.33238 20.8284 4.89768 20.8252C5.27526 20.823 5.51907 20.5781 5.52015 20.1995C5.5223 18.6643 5.5223 17.1303 5.52015 15.5951C5.52015 15.2078 5.2731 14.9705 4.87826 14.9683C4.36367 14.9662 3.84907 14.9673 3.33448 14.9683C3.28486 14.9683 3.23523 14.9759 3.18021 14.9802C3.18021 16.9296 3.18021 18.865 3.18021 20.8263ZM10.2475 3.17482C9.40601 3.17482 8.58504 3.17806 7.76406 3.17158C7.63677 3.17051 7.56664 3.21258 7.4976 3.31722C7.05097 3.99687 6.5968 4.67113 6.14478 5.34754C6.11349 5.39393 6.08652 5.44355 6.04876 5.50612C7.46092 5.50612 8.85042 5.50612 10.2475 5.50612C10.2475 4.72938 10.2475 3.96343 10.2475 3.17482ZM14.9597 5.50504C16.3589 5.50504 17.7473 5.50504 19.153 5.50504C19.1336 5.46621 19.1239 5.44355 19.111 5.42305C18.6341 4.7078 18.1605 3.99256 17.6761 3.2827C17.6362 3.22337 17.5305 3.18021 17.4539 3.17914C16.6718 3.17158 15.8896 3.17482 15.1075 3.17482C15.0579 3.17482 15.0083 3.18345 14.9597 3.18777C14.9597 3.96882 14.9597 4.7337 14.9597 5.50504ZM11.4439 6.6982C11.4439 7.71012 11.4439 8.70479 11.4439 9.72426C11.7039 9.55165 11.9412 9.39414 12.1785 9.23664C12.5119 9.01548 12.6888 9.01332 13.02 9.23124C13.2627 9.39091 13.5033 9.55165 13.7655 9.72534C13.7655 8.69831 13.7655 7.70257 13.7655 6.6982C12.9887 6.6982 12.2217 6.6982 11.4439 6.6982ZM11.4363 5.50396C12.2249 5.50396 12.9963 5.50396 13.7665 5.50396C13.7665 4.72399 13.7665 3.95911 13.7665 3.18669C12.9866 3.18669 12.2152 3.18669 11.4363 3.18669C11.4363 3.96235 11.4363 4.72722 11.4363 5.50396Z" fill="#040D12"/>
<path d="M5.16797 21.9979C5.5585 21.9062 5.91774 21.7552 6.20362 21.4585C6.23491 21.4262 6.31258 21.4132 6.35897 21.4272C7.37197 21.7207 8.40331 21.9138 9.45838 21.9742C9.47564 21.9753 9.49291 21.9893 9.51017 21.9979C8.06241 21.9979 6.61465 21.9979 5.16797 21.9979Z" fill="white"/>
</svg>
