<svg width="24" height="24" viewBox="0 0 24 24" fill="none" xmlns="http://www.w3.org/2000/svg">
<g id="Group 2338">
<path id="Vector" d="M12.5004 22.0992L12.49 22.097C12.0618 22.0052 11.6433 21.8697 11.2736 21.5941L11.2736 21.594C10.3758 20.923 10.0102 19.7826 10.3702 18.7383L10.4647 18.7708L10.3702 18.7382C10.7353 17.6793 11.7366 16.9917 12.8695 17.0202C13.9484 17.0471 14.9188 17.8043 15.2252 18.8544M12.5004 22.0992L15.1293 18.8827M12.5004 22.0992H12.511C12.6928 22.0992 12.8752 22.0992 13.0598 22.1L13.0755 22.1001L13.0906 22.0953C13.1765 22.0679 13.2618 22.0441 13.349 22.0197C13.4013 22.0051 13.4544 21.9903 13.5088 21.9744C13.6504 21.9329 13.7943 21.8857 13.9316 21.8202L13.9317 21.8202C14.6425 21.4805 15.0979 20.9179 15.2644 20.1616L12.5004 22.0992ZM15.2252 18.8544C15.2252 18.8545 15.2253 18.8546 15.2253 18.8547L15.1293 18.8827M15.2252 18.8544C15.2252 18.8543 15.2252 18.8543 15.2251 18.8542L15.1293 18.8827M15.2252 18.8544C15.236 18.8907 15.2465 18.927 15.2568 18.9629M15.1293 18.8827C15.1423 18.9264 15.1548 18.9701 15.1672 19.0134C15.1708 19.0259 15.1744 19.0384 15.178 19.0508M15.2568 18.9629C15.2367 18.96 15.2169 18.9566 15.1976 18.9527L15.178 19.0508M15.2568 18.9629C15.6869 19.0254 16.289 18.8731 16.8636 18.584C17.3962 18.3159 17.8837 17.941 18.1695 17.5438M15.2568 18.9629C15.259 18.9706 15.2612 18.9783 15.2634 18.986C15.267 18.9985 15.2705 19.0108 15.2741 19.0231L15.178 19.0508M15.178 19.0508L18.1695 17.5438M18.1695 17.5438C18.0701 17.544 17.9747 17.5441 17.88 17.5427L17.88 17.5427C17.6903 17.5398 17.53 17.4892 17.4177 17.375C17.3056 17.2609 17.2574 17.0994 17.2574 16.9087M18.1695 17.5438L17.2574 16.9087M5.23416 10.0145C5.23532 9.86936 5.23476 9.72416 5.23421 9.57896C5.23185 8.96306 5.22949 8.34728 5.35815 7.73848L5.13416 10.0136L5.23416 10.0145ZM5.23416 10.0145C5.23367 10.0668 5.23381 10.1188 5.23397 10.1746L7.3074 11.0079C7.30816 12.9667 7.30816 14.9263 7.30816 16.8851C7.30816 17.0925 7.26647 17.2644 7.14961 17.3824C7.03253 17.5006 6.86105 17.5434 6.65285 17.5434C6.48714 17.5434 6.32072 17.5446 6.15388 17.5459C5.71467 17.5491 5.27257 17.5523 4.8328 17.5335L4.83277 17.5335C3.79408 17.4887 2.94161 16.65 2.91752 15.6125L2.91752 15.6124C2.89161 14.4727 2.89619 13.3309 2.91979 12.1918C2.94052 11.1904 3.78603 10.1225 5.03219 10.1747C5.06437 10.176 5.0951 10.1757 5.13397 10.1753C5.13381 10.1192 5.13367 10.0664 5.13416 10.0137M5.23416 10.0145L5.13416 10.0137M5.13416 10.0137C5.1353 9.87121 5.13473 9.7278 5.13416 9.58372C5.13172 8.96707 5.12923 8.33806 5.26031 7.7178L5.26032 7.71777C5.78324 5.24641 7.19381 3.45619 9.51592 2.4729L9.55462 2.56431L9.51592 2.4729C13.4154 0.821758 17.8075 2.87408 19.1048 6.89765C19.3591 7.68601 19.4512 8.49432 19.4428 9.31415M5.13416 10.0137L19.3416 9.96998C19.3418 10.0672 19.342 10.1655 19.342 10.2655M19.4428 9.31415L19.3428 9.31312L19.4428 9.31409C19.4428 9.31411 19.4428 9.31413 19.4428 9.31415ZM19.4428 9.31415C19.4407 9.5302 19.4411 9.74629 19.4416 9.96906C19.4417 10.0353 19.4419 10.102 19.442 10.1696M19.442 10.1696C19.4096 10.1675 19.3769 10.1662 19.344 10.1655L19.342 10.2655M19.442 10.1696C19.442 10.2014 19.442 10.2334 19.442 10.2655H19.342M19.442 10.1696C19.816 10.1936 20.1519 10.3144 20.4428 10.5516L20.4429 10.5517C21.0271 11.0296 21.3723 11.6596 21.3977 12.4103V12.4104C21.4351 13.5243 21.4282 14.6406 21.4084 15.7534L21.4084 15.7535C21.4004 16.194 21.26 16.5778 21.0076 16.8708C20.7552 17.1639 20.3958 17.3605 19.9599 17.4355L19.9598 17.4355C19.8269 17.4582 19.7291 17.4979 19.6486 17.5548C19.5676 17.6121 19.4985 17.691 19.4287 17.8006C19.4287 17.8007 19.4286 17.8007 19.4286 17.8007L19.3443 17.747C18.5905 18.9314 17.5186 19.6685 16.1425 19.9484C15.9315 19.9913 15.7163 20.0135 15.4958 20.0362L19.342 10.2655M6.3028 10.1746C6.30838 9.98389 6.31052 9.79681 6.31263 9.61243C6.3179 9.15258 6.32297 8.70956 6.38078 8.26954L6.28163 8.25651L6.38078 8.26953C6.75343 5.43281 9.03252 3.28657 11.9013 3.122C14.3053 2.98424 16.146 4.00267 17.4256 6.03978L17.4256 6.03979C18.2184 7.30168 18.3098 8.71431 18.2394 10.1749C18.2171 10.175 18.1947 10.1752 18.1722 10.1755C18.0682 10.1764 17.9629 10.1774 17.8566 10.1732C17.8566 10.1732 17.8566 10.1732 17.8565 10.1732L6.3028 10.1746ZM6.3028 10.1746C6.32791 10.1745 6.35244 10.1745 6.3765 10.1745C6.48161 10.1743 6.57767 10.1741 6.67315 10.1746C6.84157 10.1755 6.98766 10.219 7.0984 10.316C7.20913 10.4129 7.27219 10.5524 7.29579 10.721L7.29585 10.7214C7.30778 10.8094 7.3076 10.8991 7.30744 10.9804C7.30742 10.9897 7.3074 10.9989 7.3074 11.0079L6.3028 10.1746ZM17.2574 16.9087C17.2566 14.9173 17.2558 12.9257 17.2604 10.9342L17.2574 16.9087ZM4.09802 12.299L4.09802 12.2989C4.10049 12.008 4.20141 11.7753 4.36741 11.6154C4.53372 11.4552 4.77305 11.3605 5.06528 11.3605H5.06749H5.06969H5.0719H5.07411H5.07631H5.07852H5.08073H5.08293H5.08514H5.08735H5.08955H5.09176H5.09396H5.09617H5.09838H5.10058H5.10279H5.105H5.1072H5.10941H5.11162H5.11382H5.11603H5.11824H5.12044H5.12265H5.12485H5.12706H5.12927H5.13147H5.13368H5.13589H5.13809H5.1403H5.14251H5.14471H5.14692H5.14913H5.15133H5.15354H5.15575H5.15795H5.16016H5.16237H5.16458H5.16678H5.16899H5.1712H5.1734H5.17561H5.17782H5.18002H5.18223H5.18444H5.18665H5.18885H5.19106H5.19327H5.19547H5.19768H5.19989H5.2021H5.2043H5.20651H5.20872H5.21093H5.21313H5.21534H5.21755H5.21976H5.22197H5.22417H5.22638H5.22859H5.2308H5.233H5.23521H5.23742H5.23963H5.24184H5.24404H5.24625H5.24846H5.25067H5.25288H5.25509H5.25729H5.2595H5.26171H5.26392H5.26613H5.26834H5.27055H5.27276H5.27496H5.27717H5.27938H5.28159H5.2838H5.28601H5.28822H5.29043H5.29264H5.29485H5.29706H5.29927H5.30148H5.30369H5.3059H5.3081H5.31031H5.31252H5.31473H5.31694H5.31915H5.32137H5.32358H5.32579H5.328H5.33021H5.33242H5.33463H5.33684H5.33905H5.34126H5.34347H5.34568H5.34789H5.3501H5.35231H5.35453H5.35674H5.35895H5.36116H5.36337H5.36558H5.36779H5.37001H5.37222H5.37443H5.37664H5.37885H5.38107H5.38328H5.38549H5.3877H5.38992H5.39213H5.39434H5.39655H5.39877H5.40098H5.40319H5.40541H5.40762H5.40983H5.41205H5.41426H5.41647H5.41869H5.4209H5.42311H5.42533H5.42754H5.42976H5.43197H5.43419H5.4364H5.43861H5.44083H5.44304H5.44526H5.44747H5.44969H5.4519H5.45412H5.45633H5.45855H5.46077H5.46298H5.4652H5.46741H5.46963H5.47184H5.47406H5.47628H5.47849H5.48071H5.48293H5.48514H5.48736H5.48958H5.49179H5.49401H5.49623H5.49845H5.50066H5.50288H5.5051H5.50732H5.50953H5.51175H5.51397H5.51619H5.51841H5.52063H5.52284H5.52506H5.52728H5.5295H5.53172H5.53394H5.53616H5.53838H5.5406H5.54282H5.54504H5.54726H5.54948H5.5517H5.55392H5.55614H5.55836H5.56058H5.5628H5.56502H5.56724H5.56946H5.57169H5.57391H5.57613H5.57835H5.58057H5.58279H5.58502H5.58724H5.58946H5.59168H5.59391H5.59613H5.59835H5.60058H5.6028H5.60502H5.60725H5.60947H5.61169H5.61392H5.61614H5.61837H5.62059H5.62282H5.62504H5.62727H5.62949H5.63172H5.63394H5.63617H5.63839H5.64062H5.64284H5.64507H5.6473H5.64952H5.65175H5.65398H5.6562H5.65843H5.66066H5.66288H5.66511H5.66734H5.66957H5.67179H5.67402H5.67625H5.67848H5.68071H5.68294H5.68517H5.68739H5.68962H5.69185H5.69408H5.69631H5.69854H5.70077H5.703H5.70523H5.70746H5.70969H5.71193H5.71416H5.71639H5.71862H5.72085H5.72308H5.72531H5.72755H5.72978H5.73201H5.73424H5.73648H5.73871H5.74094H5.74318H5.74541H5.74764H5.74988H5.75211H5.75434H5.75658H5.75881H5.76105H5.76328H5.76552H5.76775H5.76999H5.77222H5.77446H5.7767H5.77893H5.78117H5.78341H5.78564H5.78788H5.79012H5.79235H5.79459H5.79683H5.79907H5.8013H5.80354H5.80578H5.80802H5.81026H5.8125H5.81474H5.81698H5.81922H5.82146H5.8237H5.82594H5.82818H5.83042H5.83266H5.8349H5.83714H5.83938H5.84162H5.84387H5.84611H5.84835H5.85059H5.85283H5.85508H5.85732H5.85956H5.86181H5.86405H5.86629H5.86854H5.87078H5.87303H5.87527H5.87752H5.87976H5.88201H5.88425H5.8865H5.88875H5.89099H5.89324H5.89548H5.89773H5.89998H5.90223H5.90447H5.90672H5.90897H5.91122H5.91347H5.91571H5.91796H5.92021H5.92246H5.92471H5.92696H5.92921H5.93146H5.93371H5.93596H5.93821H5.94046H5.94271H5.94497H5.94722H5.94947H5.95172H5.95397H5.95623H5.95848H5.96073H5.96299H5.96524H5.96749H5.96975H5.972H5.97426H5.97651H5.97877H5.98102H5.98328H5.98553H5.98779H5.99005H5.9923H5.99456H5.99682H5.99907H6.00133H6.00359H6.00585H6.0081H6.01036H6.01262H6.01488H6.01714H6.0194H6.02166H6.02392H6.02618H6.02844H6.0307H6.03296H6.03522H6.03748H6.03974H6.04201H6.04427H6.04653H6.04879H6.05106H6.05332H6.05558H6.05785H6.06011H6.06237H6.06464H6.0669H6.06917H6.07143H6.0737H6.07597H6.07823H6.0805H6.08276H6.08503H6.0873H6.08957H6.09183H6.0941H6.09637H6.09864H6.10091H6.10318H6.10544H6.10771H6.10785V11.3619V11.372V11.3822V11.3923V11.4024V11.4126V11.4227V11.4328V11.443V11.4531V11.4632V11.4734V11.4835V11.4937V11.5038V11.5139V11.5241V11.5342V11.5443V11.5545V11.5646V11.5747V11.5849V11.595V11.6051V11.6153V11.6254V11.6355V11.6456V11.6558V11.6659V11.676V11.6862V11.6963V11.7064V11.7166V11.7267V11.7368V11.747V11.7571V11.7672V11.7773V11.7875V11.7976V11.8077V11.8179V11.828V11.8381V11.8482V11.8584V11.8685V11.8786V11.8887V11.8989V11.909V11.9191V11.9292V11.9394V11.9495V11.9596V11.9698V11.9799V11.99V12.0001V12.0103V12.0204V12.0305V12.0406V12.0508V12.0609V12.071V12.0811V12.0912V12.1014V12.1115V12.1216V12.1317V12.1419V12.152V12.1621V12.1722V12.1824V12.1925V12.2026V12.2127V12.2228V12.233V12.2431V12.2532V12.2633V12.2735V12.2836V12.2937V12.3038V12.3139V12.3241V12.3342V12.3443V12.3544V12.3645V12.3747V12.3848V12.3949V12.405V12.4152V12.4253V12.4354V12.4455V12.4556V12.4658V12.4759V12.486V12.4961V12.5062V12.5164V12.5265V12.5366V12.5467V12.5568V12.5669V12.5771V12.5872V12.5973V12.6074V12.6175V12.6277V12.6378V12.6479V12.658V12.6681V12.6783V12.6884V12.6985V12.7086V12.7187V12.7288V12.739V12.7491V12.7592V12.7693V12.7794V12.7896V12.7997V12.8098V12.8199V12.83V12.8401V12.8503V12.8604V12.8705V12.8806V12.8907V12.9009V12.911V12.9211V12.9312V12.9413V12.9514V12.9616V12.9717V12.9818V12.9919V13.002V13.0122V13.0223V13.0324V13.0425V13.0526V13.0627V13.0729V13.083V13.0931V13.1032V13.1133V13.1234V13.1336V13.1437V13.1538V13.1639V13.174V13.1842V13.1943V13.2044V13.2145V13.2246V13.2347V13.2449V13.255V13.2651V13.2752V13.2853V13.2955V13.3056V13.3157V13.3258V13.3359V13.3461V13.3562V13.3663V13.3764V13.3865V13.3966V13.4068V13.4169V13.427V13.4371V13.4472V13.4574V13.4675V13.4776V13.4877V13.4978V13.508V13.5181V13.5282V13.5383V13.5484V13.5586V13.5687V13.5788V13.5889V13.599V13.6092V13.6193V13.6294V13.6395V13.6496V13.6598V13.6699V13.68V13.6901V13.7003V13.7104V13.7205V13.7306V13.7407V13.7509V13.761V13.7711V13.7812V13.7914V13.8015V13.8116V13.8217V13.8318V13.842V13.8521V13.8622V13.8723V13.8825V13.8926V13.9027V13.9128V13.923V13.9331V13.9432V13.9533V13.9635V13.9736V13.9837V13.9938V14.004V14.0141V14.0242V14.0343V14.0445V14.0546V14.0647V14.0748V14.085V14.0951V14.1052V14.1153V14.1255V14.1356V14.1457V14.1559V14.166V14.1761V14.1862V14.1964V14.2065V14.2166V14.2268V14.2369V14.247V14.2571V14.2673V14.2774V14.2875V14.2977V14.3078V14.3179V14.3281V14.3382V14.3483V14.3585V14.3686V14.3787V14.3889V14.399V14.4091V14.4193V14.4294V14.4395V14.4497V14.4598V14.4699V14.4801V14.4902V14.5003V14.5105V14.5206V14.5307V14.5409V14.551V14.5611V14.5713V14.5814V14.5915V14.6017V14.6118V14.622V14.6321V14.6422V14.6524V14.6625V14.6727V14.6828V14.6929V14.7031V14.7132V14.7234V14.7335V14.7436V14.7538V14.7639V14.7741V14.7842V14.7943V14.8045V14.8146V14.8248V14.8349V14.8451V14.8552V14.8653V14.8755V14.8856V14.8958V14.9059V14.9161V14.9262V14.9364V14.9465V14.9567V14.9668V14.9769V14.9871V14.9972V15.0074V15.0175V15.0277V15.0378V15.048V15.0581V15.0683V15.0784V15.0886V15.0987V15.1089V15.119V15.1292V15.1393V15.1495V15.1596V15.1698V15.18V15.1901V15.2003V15.2104V15.2206V15.2307V15.2409V15.251V15.2612V15.2713V15.2815V15.2917V15.3018V15.312V15.3221V15.3323V15.3425V15.3526V15.3628V15.3729V15.3831V15.3933V15.4034V15.4136V15.4237V15.4339V15.4441V15.4542V15.4644V15.4746V15.4847V15.4949V15.505V15.5152V15.5254V15.5355V15.5457V15.5559V15.566V15.5762V15.5864V15.5965V15.6067V15.6169V15.6271V15.6372V15.6474V15.6576V15.6677V15.6779V15.6881V15.6983V15.7084V15.7186V15.7288V15.7389V15.7491V15.7593V15.7695V15.7796V15.7898V15.8V15.8102V15.8204V15.8305V15.8407V15.8509V15.8611V15.8712V15.8814V15.8916V15.9018V15.912V15.9222V15.9323V15.9425V15.9527V15.9629V15.9731V15.9833V15.9934V16.0036V16.0138V16.024V16.0342V16.0444V16.0546V16.0647V16.0749V16.0851V16.0953V16.1055V16.1157V16.1259V16.1361V16.1463V16.1565V16.1666V16.1768V16.187V16.1972V16.2074V16.2176V16.2278V16.238V16.2482V16.2584V16.2686V16.2788V16.289V16.2992V16.3094V16.3196V16.3298V16.34V16.3502V16.3525C5.99863 16.3529 5.8907 16.3541 5.78372 16.3552C5.47571 16.3584 5.17546 16.3615 4.87425 16.3485C4.45209 16.3297 4.09997 15.9595 4.09726 15.535L4.09726 15.5349C4.08966 14.4566 4.08814 13.3777 4.09802 12.299ZM19.5353 16.3433L19.5352 16.3434C19.2719 16.3614 19.0098 16.3571 18.7382 16.3526C18.6464 16.3511 18.5535 16.3495 18.4592 16.3488V16.3474V16.3373V16.3272V16.3171V16.307V16.2969V16.2868V16.2767V16.2666V16.2565V16.2464V16.2363V16.2262V16.2161V16.206V16.1959V16.1858V16.1757V16.1656V16.1555V16.1454V16.1353V16.1252V16.1151V16.105V16.0949V16.0848V16.0746V16.0645V16.0544V16.0443V16.0342V16.0241V16.014V16.0039V15.9938V15.9837V15.9736V15.9635V15.9534V15.9433V15.9332V15.9231V15.913V15.9029V15.8928V15.8827V15.8726V15.8625V15.8524V15.8423V15.8322V15.8221V15.812V15.8019V15.7919V15.7818V15.7717V15.7616V15.7515V15.7414V15.7313V15.7212V15.7111V15.701V15.6909V15.6808V15.6707V15.6606V15.6505V15.6404V15.6303V15.6202V15.6101V15.6V15.5899V15.5798V15.5697V15.5596V15.5495V15.5394V15.5293V15.5192V15.5091V15.499V15.4889V15.4788V15.4687V15.4586V15.4485V15.4384V15.4283V15.4182V15.4081V15.398V15.3879V15.3778V15.3677V15.3576V15.3475V15.3374V15.3273V15.3172V15.3071V15.297V15.2869V15.2768V15.2667V15.2566V15.2465V15.2364V15.2263V15.2162V15.2061V15.196V15.1859V15.1758V15.1657V15.1556V15.1455V15.1354V15.1253V15.1152V15.1051V15.095V15.0849V15.0748V15.0647V15.0546V15.0445V15.0344V15.0243V15.0142V15.0041V14.994V14.9839V14.9738V14.9637V14.9536V14.9435V14.9334V14.9233V14.9132V14.9031V14.893V14.8829V14.8728V14.8627V14.8526V14.8425V14.8324V14.8223V14.8122V14.8021V14.792V14.7819V14.7718V14.7617V14.7516V14.7415V14.7314V14.7213V14.7112V14.7011V14.691V14.6809V14.6708V14.6607V14.6506V14.6405V14.6304V14.6203V14.6101V14.6V14.5899V14.5798V14.5697V14.5596V14.5495V14.5394V14.5293V14.5192V14.5091V14.499V14.4889V14.4788V14.4687V14.4586V14.4485V14.4384V14.4283V14.4182V14.408V14.3979V14.3878V14.3777V14.3676V14.3575V14.3474V14.3373V14.3272V14.3171V14.307V14.2969V14.2868V14.2767V14.2665V14.2564V14.2463V14.2362V14.2261V14.216V14.2059V14.1958V14.1857V14.1756V14.1655V14.1553V14.1452V14.1351V14.125V14.1149V14.1048V14.0947V14.0846V14.0745V14.0643V14.0542V14.0441V14.034V14.0239V14.0138V14.0037V13.9936V13.9834V13.9733V13.9632V13.9531V13.943V13.9329V13.9228V13.9127V13.9025V13.8924V13.8823V13.8722V13.8621V13.852V13.8418V13.8317V13.8216V13.8115V13.8014V13.7913V13.7811V13.771V13.7609V13.7508V13.7407V13.7306V13.7204V13.7103V13.7002V13.6901V13.68V13.6698V13.6597V13.6496V13.6395V13.6294V13.6192V13.6091V13.599V13.5889V13.5788V13.5686V13.5585V13.5484V13.5383V13.5281V13.518V13.5079V13.4978V13.4876V13.4775V13.4674V13.4573V13.4471V13.437V13.4269V13.4168V13.4066V13.3965V13.3864V13.3763V13.3661V13.356V13.3459V13.3358V13.3256V13.3155V13.3054V13.2952V13.2851V13.275V13.2648V13.2547V13.2446V13.2345V13.2243V13.2142V13.2041V13.1939V13.1838V13.1737V13.1635V13.1534V13.1433V13.1331V13.123V13.1129V13.1027V13.0926V13.0825V13.0723V13.0622V13.052V13.0419V13.0318V13.0216V13.0115V13.0014V12.9912V12.9811V12.9709V12.9608V12.9507V12.9405V12.9304V12.9202V12.9101V12.9V12.8898V12.8797V12.8695V12.8594V12.8493V12.8391V12.829V12.8188V12.8087V12.7985V12.7884V12.7782V12.7681V12.758V12.7478V12.7377V12.7275V12.7174V12.7072V12.6971V12.6869V12.6768V12.6666V12.6565V12.6463V12.6362V12.626V12.6159V12.6057V12.5956V12.5854V12.5753V12.5651V12.555V12.5448V12.5347V12.5245V12.5143V12.5042V12.494V12.4839V12.4737V12.4636V12.4534V12.4433V12.4331V12.4229V12.4128V12.4026V12.3925V12.3823V12.3721V12.362V12.3518V12.3417V12.3315V12.3213V12.3112V12.301V12.2908V12.2807V12.2705V12.2604V12.2502V12.24V12.2299V12.2197V12.2095V12.1994V12.1892V12.179V12.1689V12.1587V12.1485V12.1383V12.1282V12.118V12.1078V12.0977V12.0875V12.0773V12.0671V12.057V12.0468V12.0366V12.0265V12.0163V12.0061V11.9959V11.9857V11.9756V11.9654V11.9552V11.945V11.9349V11.9247V11.9145V11.9043V11.8941V11.884V11.8738V11.8636V11.8534V11.8432V11.8331V11.8229V11.8127V11.8025V11.7923V11.7821V11.7719V11.7618V11.7516V11.7414V11.7312V11.721V11.7108V11.7006V11.6904V11.6802V11.6701V11.6599V11.6497V11.6395V11.6293V11.6191V11.6089V11.5987V11.5885V11.5783V11.5681V11.5579V11.5477V11.5375V11.5273V11.5171V11.5069V11.4967V11.4865V11.4763V11.4661V11.4559V11.4457V11.4355V11.4253V11.4151V11.4049V11.3947V11.3845V11.3743V11.3641V11.3615C18.5367 11.3607 18.6126 11.3591 18.6875 11.3575C18.9384 11.3522 19.1766 11.3472 19.415 11.3729L19.4151 11.3729C19.55 11.3872 19.7114 11.4789 19.8239 11.5879L19.8242 11.5881C20.0853 11.8394 20.216 12.1705 20.2195 12.5349C20.2302 13.5937 20.2271 14.6528 20.2218 15.7123C20.2208 15.8995 20.1582 16.0463 20.0478 16.1508C19.9361 16.2565 19.766 16.3277 19.5353 16.3433ZM17.3376 10.52C17.2888 10.6491 17.2604 10.7941 17.2604 10.9339L17.3376 10.52ZM12.7737 18.1915C13.5438 18.1894 14.1312 18.7875 14.1355 19.5922C14.139 20.3031 13.5494 20.8976 12.8188 20.9103C12.0832 20.9231 11.4311 20.2873 11.4205 19.5415C11.4099 18.8116 12.0251 18.1937 12.7737 18.1915Z" fill="#040D12" stroke="#040D12" stroke-width="0.2"/>
</g>
</svg>
