<svg width="24" height="24" viewBox="0 0 24 24" fill="none" xmlns="http://www.w3.org/2000/svg">
<circle cx="12" cy="12" r="12" fill="#FFA412"/>
<g clip-path="url(#clip0_1402_11318)">
<path fill-rule="evenodd" clip-rule="evenodd" d="M15.7871 4.82222C15.487 4.52226 15.0801 4.35376 14.6559 4.35376C14.2316 4.35376 13.8247 4.52226 13.5247 4.82222L5.27349 13.0734C4.97341 13.3734 4.80478 13.7803 4.80469 14.2046V18.391C4.80469 18.8366 5.16709 19.199 5.61269 19.199L18.4079 19.1982C18.6201 19.1982 18.8235 19.1139 18.9736 18.9639C19.1236 18.8139 19.2079 18.6104 19.2079 18.3982C19.2079 18.186 19.1236 17.9826 18.9736 17.8325C18.8235 17.6825 18.6201 17.5982 18.4079 17.5982H12.0623L19.1815 10.479C19.4814 10.179 19.6499 9.77208 19.6499 9.34782C19.6499 8.92356 19.4814 8.51666 19.1815 8.21662L15.7871 4.82222ZM9.79989 17.5982L18.0503 9.34782L14.6559 5.95342L6.40469 14.2046V17.5982H9.79989Z" fill="white"/>
</g>
<defs>
<clipPath id="clip0_1402_11318">
<rect width="19.2" height="19.2" fill="white" transform="translate(2.40625 2.39819)"/>
</clipPath>
</defs>
</svg>
