<svg width="20" height="20" viewBox="0 0 20 20" fill="none" xmlns="http://www.w3.org/2000/svg">
<g id="streamline:interface-help-question-circle-circle-faq-frame-help-info-mark-more-query-question" clip-path="url(#clip0_1420_8260)">
<path id="Vector (Stroke)" fill-rule="evenodd" clip-rule="evenodd" d="M10 1.42857C5.26613 1.42857 1.42857 5.26613 1.42857 10C1.42857 14.7339 5.26613 18.5714 10 18.5714C14.7339 18.5714 18.5714 14.7339 18.5714 10C18.5714 5.26613 14.7339 1.42857 10 1.42857ZM0 10C0 4.47715 4.47715 0 10 0C15.5228 0 20 4.47715 20 10C20 15.5228 15.5228 20 10 20C4.47715 20 0 15.5228 0 10Z" fill="#040D12"/>
<path id="Vector (Stroke)_2" fill-rule="evenodd" clip-rule="evenodd" d="M10.2804 6.45602C10.0033 6.4009 9.71602 6.42919 9.45498 6.53732C9.19395 6.64544 8.97083 6.82854 8.81386 7.06347C8.65689 7.2984 8.5731 7.5746 8.5731 7.85714C8.5731 8.25163 8.25331 8.57143 7.85882 8.57143C7.46433 8.57143 7.14453 8.25163 7.14453 7.85714C7.14453 7.29205 7.3121 6.73966 7.62605 6.2698C7.93999 5.79995 8.38622 5.43374 8.90829 5.21749C9.43037 5.00124 10.0048 4.94466 10.5591 5.0549C11.1133 5.16514 11.6224 5.43726 12.022 5.83684C12.4216 6.23642 12.6937 6.74551 12.8039 7.29974C12.9142 7.85398 12.8576 8.42845 12.6413 8.95053C12.4251 9.4726 12.0589 9.91882 11.589 10.2328C11.3206 10.4121 11.0252 10.5437 10.716 10.6236V11.4286C10.716 11.8231 10.3962 12.1429 10.0017 12.1429C9.60718 12.1429 9.28739 11.8231 9.28739 11.4286V10C9.28739 9.60551 9.60718 9.28572 10.0017 9.28572C10.2842 9.28572 10.5604 9.20193 10.7953 9.04496C11.0303 8.88798 11.2134 8.66487 11.3215 8.40383C11.4296 8.1428 11.4579 7.85556 11.4028 7.57844C11.3477 7.30133 11.2116 7.04678 11.0118 6.84699C10.812 6.6472 10.5575 6.51114 10.2804 6.45602Z" fill="#040D12"/>
<path id="Vector" d="M10.0011 13.5713C9.78921 13.5713 9.58206 13.6341 9.40586 13.7519C9.22967 13.8696 9.09234 14.0369 9.01125 14.2327C8.93015 14.4285 8.90893 14.6439 8.95028 14.8517C8.99162 15.0596 9.09366 15.2505 9.2435 15.4003C9.39334 15.5502 9.58425 15.6522 9.79209 15.6936C9.99993 15.7349 10.2154 15.7137 10.4111 15.6326C10.6069 15.5515 10.7742 15.4142 10.892 15.238C11.0097 15.0618 11.0725 14.8546 11.0725 14.6427C11.0688 14.3597 10.9548 14.0893 10.7546 13.8892C10.5545 13.6891 10.2841 13.575 10.0011 13.5713Z" fill="#040D12"/>
</g>
<defs>
<clipPath id="clip0_1420_8260">
<rect width="20" height="20" fill="white"/>
</clipPath>
</defs>
</svg>
