<svg width="24" height="24" viewBox="0 0 24 24" fill="none" xmlns="http://www.w3.org/2000/svg">
<g id="Group 271">
<g id="Group 270">
<path id="Vector" d="M21.7316 6.28192C21.3371 5.74565 20.7939 5.51638 20.1433 5.51638C17.5181 5.51491 14.893 5.51638 12.2679 5.51491C11.7878 5.51491 11.8611 5.55353 11.7961 5.08668C11.7223 4.55236 11.6724 4.01463 11.5874 3.48178C11.4793 2.8008 10.836 1.99175 9.85684 2.00006C7.81148 2.01668 5.76612 2.00397 3.72076 2.00691C3.48709 2.0074 3.25488 2.02597 3.03441 2.12717C2.45268 2.39359 2.09973 2.83209 2 3.4676C2 7.9802 2 12.4928 2 17.0059C2.04937 17.1457 2.04644 17.2972 2.11244 17.4351C2.45903 18.1576 3.05152 18.4964 3.83222 18.5023C5.35451 18.514 6.87679 18.5052 8.39908 18.5062C8.64595 18.5062 8.64937 18.5076 8.68164 18.7447C8.76132 19.3299 8.81265 19.919 8.90553 20.5022C8.96859 20.8986 9.14507 21.2369 9.433 21.5224C9.69503 21.7825 9.99665 21.955 10.3662 22C13.7413 22 17.1163 22 20.4918 22C20.6536 21.9609 20.8213 21.9619 20.9787 21.89C21.5585 21.6241 21.9075 21.1846 22.0166 20.5564C22.0166 16.0565 22.0166 11.5571 22.0166 7.05724C21.9804 6.77713 21.9022 6.51364 21.7316 6.28192ZM3.89675 17.2787C3.38639 17.2787 3.17325 17.0665 3.17276 16.5586C3.17276 14.4458 3.17276 12.3325 3.17276 10.2191C3.17276 8.11268 3.17276 6.00621 3.17276 3.89926C3.17276 3.4148 3.39127 3.19384 3.87182 3.19384C5.81354 3.19433 7.75477 3.19433 9.69601 3.19433C10.1154 3.19433 10.3423 3.38254 10.3941 3.79269C10.5706 5.1908 10.7402 6.5899 10.9147 7.98851C11.0907 9.39983 11.2706 10.8111 11.4466 12.2225C11.6099 13.5306 11.7707 14.8393 11.9325 16.1479C11.9741 16.4833 12.0088 16.8191 12.0611 17.153C12.0787 17.266 12.0464 17.2894 11.9482 17.2792C11.9159 17.2757 11.8831 17.2787 11.8504 17.2787C9.19982 17.2787 6.54829 17.2787 3.89675 17.2787ZM10.0832 20.0363C10.0318 19.6276 9.97954 19.2575 9.94092 18.8855C9.92626 18.7457 9.83093 18.5502 9.91599 18.4803C10.0064 18.4055 10.1995 18.4509 10.3476 18.45C10.6923 18.448 11.0364 18.4495 11.3811 18.45C11.3933 18.45 11.405 18.4553 11.4451 18.4651C10.9895 18.9901 10.5495 19.4981 10.0832 20.0363ZM20.1247 20.8292C17.1407 20.8292 14.1563 20.8292 11.1723 20.8292C11.1103 20.8292 11.0477 20.8292 10.948 20.8292C11.3884 20.3203 11.8039 19.8403 12.2195 19.3602C12.505 19.0307 12.7841 18.6954 13.0779 18.3737C13.2715 18.162 13.3443 17.9406 13.3067 17.6477C13.0192 15.4059 12.746 13.162 12.4668 10.9187C12.2943 9.53279 12.1183 8.14787 11.9418 6.74438C12.021 6.74438 12.0919 6.74438 12.1623 6.74438C14.8143 6.74438 17.4658 6.74438 20.1179 6.74438C20.6297 6.74438 20.8428 6.95605 20.8428 7.46299C20.8428 11.6764 20.8428 15.8898 20.8428 20.1037C20.8433 20.6156 20.6321 20.8292 20.1247 20.8292Z" fill="#040D12"/>
<path id="Vector_2" d="M18.8639 12.123C18.8873 12.0482 18.9172 12.012 19.0096 12.0076C19.3962 11.9881 19.6436 11.7417 19.6314 11.4053C19.6187 11.0666 19.3561 10.8427 18.968 10.8412C18.5965 10.8402 18.2254 10.8417 17.8539 10.8407C17.6725 10.8402 17.4359 10.9033 17.3245 10.8138C17.2076 10.72 17.3 10.4736 17.2873 10.2947C17.2863 10.282 17.2873 10.2688 17.2868 10.2556C17.2722 9.92315 17.0209 9.67236 16.7017 9.67188C16.3825 9.67139 16.1278 9.92168 16.1155 10.2541C16.1102 10.4032 16.1077 10.5533 16.1165 10.7024C16.1229 10.8099 16.0931 10.8476 15.9792 10.8441C15.7059 10.8358 15.4321 10.8412 15.1584 10.8412C14.9042 10.8412 14.6505 10.8388 14.3963 10.8417C14.0325 10.8456 13.7715 11.0895 13.7695 11.4229C13.7676 11.7495 14.013 11.9969 14.3699 12.0076C14.4754 12.0105 14.5146 12.0492 14.5434 12.1396C14.8123 12.9902 15.2361 13.7592 15.7963 14.4524C15.8726 14.5467 15.8745 14.599 15.7733 14.6792C15.3803 14.9896 14.9951 15.3103 14.6069 15.6261C14.4085 15.7874 14.3122 15.9893 14.3752 16.244C14.4798 16.6674 14.9555 16.8257 15.3197 16.553C15.7518 16.2293 16.1703 15.8871 16.5726 15.5269C16.6689 15.4408 16.7286 15.4403 16.8288 15.5249C17.2306 15.8656 17.6413 16.1961 18.0494 16.529C18.2078 16.6581 18.3853 16.728 18.5926 16.6742C18.8282 16.6136 18.9792 16.462 19.0316 16.2264C19.0839 15.9883 18.9973 15.7913 18.8116 15.6393C18.4146 15.3132 18.0172 14.9872 17.6158 14.666C17.5322 14.599 17.5225 14.5565 17.5929 14.469C18.1604 13.766 18.5916 12.9873 18.8639 12.123ZM16.7799 13.613C16.7281 13.6814 16.6978 13.7196 16.6279 13.6262C16.2798 13.1613 15.9968 12.6612 15.7802 12.1225C15.7333 12.0057 15.789 12.0086 15.8721 12.0091C16.1454 12.011 16.4191 12.0096 16.6924 12.0096C16.9725 12.0096 17.2526 12.012 17.5322 12.0081C17.6266 12.0071 17.6608 12.0189 17.6173 12.1259C17.4037 12.6588 17.1265 13.155 16.7799 13.613Z" fill="#040D12"/>
<path id="Vector_3" d="M9.6453 12.4539C9.26155 10.5391 8.87731 8.62424 8.49112 6.7099C8.41584 6.33592 8.20514 6.16336 7.82628 6.15994C7.49386 6.157 7.16193 6.15847 6.82951 6.15945C6.42376 6.16091 6.21893 6.32663 6.13827 6.72456C5.83958 8.19992 5.54334 9.67576 5.24661 11.1511C5.15177 11.6219 5.05938 12.0927 4.97334 12.5272C4.95867 12.8709 5.18257 13.1378 5.48419 13.1774C5.7951 13.218 6.07081 13.0088 6.14023 12.671C6.25658 12.1054 6.37194 11.5393 6.47949 10.9722C6.49905 10.8691 6.53278 10.8368 6.63886 10.8383C7.08811 10.8446 7.53786 10.8466 7.98711 10.8373C8.10982 10.8348 8.13475 10.8827 8.15479 10.9869C8.26283 11.5539 8.37526 12.1205 8.49356 12.6856C8.56445 13.0249 8.87047 13.2356 9.18138 13.173C9.51184 13.1065 9.71423 12.7971 9.6453 12.4539ZM6.74592 9.66403C6.83635 9.20451 6.92435 8.74988 7.01527 8.29573C7.07247 8.00975 7.13602 7.72475 7.18931 7.4378C7.20348 7.36154 7.22304 7.32243 7.30907 7.3278C7.37898 7.3322 7.42249 7.33318 7.44058 7.42411C7.58528 8.16814 7.73731 8.91071 7.88934 9.66354C7.50706 9.66403 7.13749 9.66403 6.74592 9.66403Z" fill="#040D12"/>
</g>
</g>
</svg>
