<svg width="24" height="24" viewBox="0 0 24 24" fill="none" xmlns="http://www.w3.org/2000/svg">
<g id="Group 173">
<path id="Vector" d="M23.8424 11.572C23.0415 10.1928 22.2283 8.8214 21.4213 7.44715C21.2429 7.14317 20.9808 7.00168 20.6342 7.00168C15.2006 7.00308 9.76694 7.00308 4.33261 7.00098C3.97439 7.00098 3.71156 7.14947 3.52834 7.46256C2.72681 8.83051 1.91842 10.1949 1.12032 11.5657C0.757991 12.1884 1.13542 12.8636 1.84156 12.8713C2.29517 12.8762 2.74946 12.8853 3.20169 12.8664C3.41236 12.8573 3.44668 12.9315 3.44599 13.1263C3.43913 15.2311 3.44187 17.3359 3.44187 19.4407C3.44187 20.0991 3.75548 20.4192 4.40123 20.4192C7.09678 20.4192 9.79232 20.4192 12.4879 20.4192C15.1834 20.4192 17.879 20.4192 20.5745 20.4192C21.2004 20.4192 21.516 20.0935 21.5167 19.4491C21.5174 17.3359 21.5201 15.222 21.5119 13.1087C21.5112 12.9126 21.5565 12.8608 21.7487 12.8678C22.2016 12.8839 22.6559 12.8762 23.1095 12.872C23.819 12.8643 24.204 12.194 23.8424 11.572ZM3.25041 11.1945C3.74038 10.3624 4.20566 9.57436 4.66681 8.78428C4.7121 8.70723 4.76151 8.67711 4.84935 8.67711C6.34398 8.67921 7.83929 8.67851 9.33117 8.67851C9.37098 8.77027 9.30166 8.8179 9.2701 8.87183C8.85218 9.58977 8.43014 10.3056 8.01016 11.0222C7.95252 11.1202 7.90448 11.1987 7.76106 11.198C6.27535 11.1917 4.78896 11.1945 3.25041 11.1945ZM21.4213 11.1945C18.9502 11.1945 16.4797 11.1931 14.0086 11.198C13.8384 11.198 13.7361 11.158 13.6442 10.9955C13.2475 10.2944 12.833 9.60448 12.4254 8.91036C12.3877 8.84592 12.3513 8.78078 12.2937 8.67851C14.9281 8.67851 17.5098 8.67851 20.0921 8.67781C20.1717 8.67781 20.2362 8.68271 20.2849 8.76677C20.7495 9.56456 21.2182 10.3595 21.7089 11.1945C21.584 11.1945 21.503 11.1945 21.4213 11.1945Z" fill="#0A9494"/>
</g>
</svg>
