<svg width="24" height="24" viewBox="0 0 24 24" fill="none" xmlns="http://www.w3.org/2000/svg">
<g id="Group 2722">
<g id="Group 2721">
<g id="Group">
<path id="Vector" d="M12.8608 19.3861C10.5652 19.3861 8.26955 19.3848 5.97394 19.3836C4.70381 19.3824 3.81299 18.4915 3.80682 17.2152C3.80682 17.0855 3.80682 16.9558 3.80682 16.8137V16.5666H3.77593C3.6845 16.5666 3.59554 16.5678 3.51029 16.5678C3.42874 16.5691 3.34843 16.5691 3.26936 16.5691C3.16187 16.5691 3.07291 16.5678 2.98889 16.5653C1.95352 16.532 1.10471 15.724 1.01575 14.6861C1.00587 14.5663 1.00093 14.4612 1.00093 14.3661V13.4506C0.999691 11.0759 0.999691 8.61965 1.00093 6.20295C1.00216 5.19352 1.52356 4.41761 2.39708 4.12726C2.63306 4.04819 2.88758 4.00742 3.13345 4.00618C5.73548 4.00247 8.4833 4 11.5351 4C13.3735 4 15.212 4.00124 17.0505 4.00124C18.2761 4.00247 19.1719 4.89947 19.183 6.135C19.1855 6.43399 19.1842 6.72805 19.1842 7.04064C19.1842 7.18396 19.1842 7.32975 19.1842 7.47925V7.51014H19.823C21.0857 7.51261 21.9753 8.37625 21.9852 9.60931C22.0049 12.1496 22.0049 14.7318 21.9852 17.2857C21.9753 18.52 21.0869 19.3824 19.823 19.3824C17.5014 19.3861 15.1811 19.3861 12.8608 19.3861ZM19.8156 18.0393C19.8489 18.0393 19.8897 18.0393 19.9293 18.0356C20.3605 18.0035 20.6347 17.7156 20.6446 17.2844C20.6471 17.1695 20.6471 17.0546 20.6459 16.9422C20.6459 16.894 20.6459 16.847 20.6459 16.7989V15.0494C20.6459 13.2591 20.6459 11.4688 20.6459 9.67726C20.6459 9.20529 20.4111 8.90876 20.0009 8.86305C19.9157 8.85317 19.823 8.84946 19.7106 8.84946C19.6327 8.84946 19.5536 8.85193 19.4733 8.85316C19.3893 8.85563 19.3041 8.85811 19.2151 8.85811H19.1842V9.17193C19.1842 9.62043 19.1855 10.0689 19.1855 10.5187C19.1879 11.7826 19.1892 13.0898 19.1756 14.3747C19.1719 14.7442 19.1002 15.0975 18.9767 15.3681C18.6072 16.1687 17.9376 16.5752 16.985 16.5752C15.2182 16.5728 13.4538 16.5728 11.6895 16.5728L5.16713 16.574V16.6049C5.16713 16.6975 5.16466 16.7865 5.16343 16.8742C5.15972 17.0645 5.15602 17.2449 5.17208 17.4228C5.20049 17.7243 5.43401 17.9652 5.75278 18.0208C5.84668 18.0369 5.94305 18.0406 6.05672 18.0406C9.05288 18.0406 12.049 18.0418 15.0452 18.0418H19.7414L19.8156 18.0393ZM10.1476 5.34302C7.82476 5.34302 5.5032 5.34302 3.1804 5.34426C2.638 5.34426 2.35013 5.6309 2.35013 6.1733C2.34889 8.90135 2.34889 11.6294 2.35013 14.3587C2.35013 14.9493 2.63924 15.2359 3.23353 15.2372H16.9652C17.5632 15.2372 17.8424 14.9579 17.8424 14.3575C17.8437 11.6442 17.8437 8.931 17.8424 6.21902C17.8424 5.6309 17.5607 5.34549 16.9825 5.34549C14.7042 5.34302 12.4259 5.34302 10.1476 5.34302Z" fill="#040D12"/>
<path id="Vector_2" d="M10.1062 13.0564C8.57419 13.0564 7.3226 11.8209 7.31642 10.3012C7.31395 9.55371 7.60059 8.85193 8.12569 8.32313C8.64585 7.79926 9.33775 7.51015 10.0741 7.50891H10.0815C11.6371 7.50891 12.8602 8.72961 12.8677 10.2876C12.8714 11.0203 12.586 11.7134 12.0633 12.2385C11.5407 12.7649 10.8476 13.0552 10.1112 13.0564H10.1062ZM10.0778 8.84823C9.30192 8.85564 8.65203 9.51788 8.65944 10.2926C8.66686 11.0784 9.31057 11.7171 10.0939 11.7171C10.4732 11.7171 10.8315 11.5664 11.1033 11.2946C11.3751 11.0228 11.5246 10.6645 11.5246 10.2876C11.5234 9.50676 10.8673 8.84823 10.0914 8.84823H10.0778Z" fill="#040D12"/>
<path id="Vector_3" d="M15.7121 8.17847C15.3167 8.18094 15.0091 7.87576 15.0078 7.48039C15.0066 7.09738 15.3093 6.78726 15.6886 6.78232C16.0877 6.77614 16.399 7.07514 16.404 7.46928C16.4089 7.86588 16.1062 8.176 15.7121 8.17847Z" fill="#040D12"/>
<path id="Vector_4" d="M5.1747 13.1042C5.17223 13.4959 4.85223 13.8097 4.46427 13.8023C4.07632 13.7937 3.76496 13.4687 3.77361 13.0808C3.78226 12.7089 4.10721 12.3913 4.47663 12.3926C4.86706 12.3951 5.17841 12.7113 5.1747 13.1042Z" fill="#040D12"/>
<path id="Vector_5" d="M4.48654 8.17843C4.09487 8.17967 3.77858 7.86708 3.77734 7.47789C3.77734 7.10352 4.08993 6.78723 4.46677 6.78229C4.8609 6.77734 5.17967 7.08128 5.18461 7.47047C5.19203 7.85967 4.8782 8.1772 4.48654 8.17843Z" fill="#040D12"/>
<path id="Vector_6" d="M16.404 13.1005C16.404 13.491 16.0853 13.8073 15.6985 13.8023C15.3106 13.7974 15.0029 13.4774 15.0079 13.0845C15.0128 12.7089 15.3291 12.3938 15.7035 12.3926C16.0914 12.3926 16.4053 12.7089 16.404 13.1005Z" fill="#040D12"/>
</g>
</g>
</g>
</svg>
