<svg width="24" height="24" viewBox="0 0 24 24" fill="none" xmlns="http://www.w3.org/2000/svg">
<g clip-path="url(#clip0_1337_11478)">
<path fill-rule="evenodd" clip-rule="evenodd" d="M4.21701 1.88954C3.59818 1.88954 3.00468 2.13537 2.5671 2.57296C2.12951 3.01054 1.88368 3.60404 1.88368 4.22287V8.11176H0.328125V4.22287C0.328125 3.19148 0.737846 2.20232 1.46715 1.47301C2.19646 0.743705 3.18562 0.333984 4.21701 0.333984H8.1059V1.88954H4.21701ZM19.7726 1.88954H15.8837V0.333984H19.7726C20.804 0.333984 21.7931 0.743706 22.5224 1.47301C23.2517 2.20232 23.6615 3.19148 23.6615 4.22287V8.11176H22.1059V4.22287C22.1059 3.60404 21.8601 3.01054 21.4225 2.57296C20.9849 2.13537 20.3914 1.88954 19.7726 1.88954ZM20.5503 12.7784H3.43924V11.2229H20.5503V12.7784ZM0.328125 19.7784V15.8895H1.88368V19.7784C1.88368 20.3973 2.12951 20.9908 2.5671 21.4283C3.00468 21.8659 3.59818 22.1118 4.21701 22.1118H8.1059V23.6673H4.21701C3.18562 23.6673 2.19646 23.2576 1.46715 22.5283C0.737846 21.799 0.328125 20.8098 0.328125 19.7784ZM22.1059 19.7784V15.8895H23.6615V19.7784C23.6615 20.8098 23.2517 21.799 22.5224 22.5283C21.7931 23.2576 20.804 23.6673 19.7726 23.6673H15.8837V22.1118H19.7726C20.3914 22.1118 20.9849 21.8659 21.4225 21.4283C21.8601 20.9908 22.1059 20.3973 22.1059 19.7784Z" fill="white"/>
</g>
<defs>
<clipPath id="clip0_1337_11478">
<rect width="23.3333" height="23.3333" fill="white" transform="translate(0.328125 0.333984)"/>
</clipPath>
</defs>
</svg>
